<?xml version="1.0" standalone="no"?>
<!DOCTYPE svg PUBLIC "-//W3C//DTD SVG 20010904//EN"
 "http://www.w3.org/TR/2001/REC-SVG-20010904/DTD/svg10.dtd">
<svg version="1.0" xmlns="http://www.w3.org/2000/svg"
 width="225.000000pt" height="225.000000pt" viewBox="0 0 225.000000 225.000000"
 preserveAspectRatio="xMidYMid meet">

<g transform="translate(0.000000,225.000000) scale(0.100000,-0.100000)"
fill="#000000" stroke="none">
<path d="M1078 1172 c-559 -559 -628 -631 -628 -658 0 -38 27 -64 65 -64 21 0
48 20 119 88 l91 89 60 -19 c109 -35 207 -49 340 -49 249 0 467 68 664 209 89
63 216 191 276 280 l49 73 -18 34 c-62 115 -242 294 -373 371 l-64 37 71 72
c75 79 88 115 52 148 -50 46 -33 60 -704 -611z m436 166 c70 -120 72 -288 5
-420 -54 -107 -184 -203 -307 -229 -104 -21 -253 7 -322 61 l-25 19 45 46 45
45 54 -21 c67 -25 154 -26 223 -3 70 23 158 109 181 178 23 67 22 163 -3 228
l-20 52 42 43 c23 24 46 43 50 43 4 0 18 -19 32 -42z"/>
<path d="M1020 1688 c-333 -26 -644 -208 -838 -491 l-46 -68 18 -34 c53 -98
239 -291 334 -347 l28 -17 102 102 103 103 -16 44 c-38 105 -27 247 26 352 33
64 124 154 191 187 108 55 241 64 347 26 l45 -15 58 57 c32 32 58 60 58 64 0
9 -169 37 -250 41 -36 2 -108 0 -160 -4z"/>
<path d="M1077 1428 c-106 -15 -209 -100 -242 -198 -16 -48 -23 -166 -10 -178
6 -6 375 357 375 369 0 11 -71 15 -123 7z"/>
</g>
</svg>
