<?xml version="1.0" standalone="no"?>
<!DOCTYPE svg PUBLIC "-//W3C//DTD SVG 20010904//EN"
 "http://www.w3.org/TR/2001/REC-SVG-20010904/DTD/svg10.dtd">
<svg version="1.0" xmlns="http://www.w3.org/2000/svg"
 width="512.000000pt" height="512.000000pt" viewBox="0 0 512.000000 512.000000"
 preserveAspectRatio="xMidYMid meet">

<g transform="translate(0.000000,512.000000) scale(0.100000,-0.100000)"
fill="#000000" stroke="none">
<path d="M2366 4259 c-501 -41 -979 -237 -1426 -583 -140 -108 -463 -431 -586
-586 -105 -132 -280 -389 -328 -480 l-29 -55 51 -105 c262 -545 726 -1028
1247 -1296 395 -204 779 -296 1245 -297 210 -1 326 10 508 44 667 128 1305
559 1794 1213 86 116 231 340 264 410 l17 34 -58 98 c-239 407 -552 766 -915
1050 -291 228 -715 431 -1050 503 -221 47 -524 68 -734 50z m319 -639 c260
-30 454 -120 631 -295 151 -150 232 -294 286 -513 32 -125 32 -379 0 -504 -74
-296 -238 -523 -483 -669 -184 -109 -438 -163 -659 -140 -265 28 -464 117
-643 290 -139 134 -232 293 -284 486 -24 91 -27 116 -27 285 0 169 3 194 27
285 52 193 145 352 284 486 231 222 541 326 868 289z"/>
<path d="M2430 3184 c-218 -46 -410 -226 -480 -449 -31 -98 -31 -252 0 -350
85 -272 340 -465 615 -465 229 0 456 140 563 346 131 253 85 541 -118 745
-154 155 -369 219 -580 173z"/>
</g>
</svg>
